REM DIRINDEX 1\2\4,1\2\5,1\2\6,1\3\7,1\3\8
REM DIRNAME cjc128,folder01,folder02,folder03,folder04,folder05,folder06,folder07
TITLE ""
FILE "002_Lesson 01_Output_Stage.mp3" MP3
  TRACK 01 AUDIO
    TITLE "0:"
    INDEX 01 00:00:00
  TRACK 02 AUDIO
    TITLE "6:cjc128_0033"
    INDEX 01 00:00:09
  TRACK 03 AUDIO
    TITLE "0:"
    INDEX 01 00:02:63
  TRACK 04 AUDIO
    TITLE "6:cjc128_0034"
    INDEX 01 00:03:31
  TRACK 05 AUDIO
    TITLE "0:"
    INDEX 01 00:04:36
  TRACK 06 AUDIO
    TITLE "4:cjc128_0035"
    INDEX 01 00:05:10
  TRACK 07 AUDIO
    TITLE "0:"
    INDEX 01 00:07:31
  TRACK 08 AUDIO
    TITLE "5:cjc128_0036"
    INDEX 01 00:10:21
  TRACK 09 AUDIO
    TITLE "0:"
    INDEX 01 00:12:30
  TRACK 10 AUDIO
    TITLE "6:cjc128_0037"
    INDEX 01 00:13:06
  TRACK 11 AUDIO
    TITLE "0:"
    INDEX 01 00:14:15
  TRACK 12 AUDIO
    TITLE "4:cjc128_0038"
    INDEX 01 00:14:64
  TRACK 13 AUDIO
    TITLE "0:"
    INDEX 01 00:17:49
  TRACK 14 AUDIO
    TITLE "5:cjc128_0039"
    INDEX 01 00:21:13
  TRACK 15 AUDIO
    TITLE "0:"
    INDEX 01 00:24:00
  TRACK 16 AUDIO
    TITLE "6:cjc128_0040"
    INDEX 01 00:24:51
  TRACK 17 AUDIO
    TITLE "0:"
    INDEX 01 00:26:01
  TRACK 18 AUDIO
    TITLE "4:cjc128_0041"
    INDEX 01 00:26:52
  TRACK 19 AUDIO
    TITLE "0:"
    INDEX 01 00:29:70
  TRACK 20 AUDIO
    TITLE "5:cjc128_0042"
    INDEX 01 00:33:30
  TRACK 21 AUDIO
    TITLE "0:"
    INDEX 01 00:36:19
  TRACK 22 AUDIO
    TITLE "6:cjc128_0043"
    INDEX 01 00:36:68
  TRACK 23 AUDIO
    TITLE "0:"
    INDEX 01 00:38:16
  TRACK 24 AUDIO
    TITLE "4:cjc128_0044"
    INDEX 01 00:38:65
  TRACK 25 AUDIO
    TITLE "0:"
    INDEX 01 00:42:70
  TRACK 26 AUDIO
    TITLE "5:cjc128_0045"
    INDEX 01 00:47:13
  TRACK 27 AUDIO
    TITLE "0:"
    INDEX 01 00:50:52
  TRACK 28 AUDIO
    TITLE "6:cjc128_0046"
    INDEX 01 00:51:38
  TRACK 29 AUDIO
    TITLE "0:"
    INDEX 01 00:52:57
  TRACK 30 AUDIO
    TITLE "4:cjc128_0047"
    INDEX 01 00:53:43
  TRACK 31 AUDIO
    TITLE "0:"
    INDEX 01 00:56:10
  TRACK 32 AUDIO
    TITLE "5:cjc128_0048"
    INDEX 01 00:58:52
  TRACK 33 AUDIO
    TITLE "0:"
    INDEX 01 01:00:45
  TRACK 34 AUDIO
    TITLE "6:cjc128_0049"
    INDEX 01 01:01:25
  TRACK 35 AUDIO
    TITLE "0:"
    INDEX 01 01:02:52
  TRACK 36 AUDIO
    TITLE "4:cjc128_0050"
    INDEX 01 01:03:29
  TRACK 37 AUDIO
    TITLE "0:"
    INDEX 01 01:05:58
  TRACK 38 AUDIO
    TITLE "5:cjc128_0051"
    INDEX 01 01:08:31
  TRACK 39 AUDIO
    TITLE "0:"
    INDEX 01 01:10:37
  TRACK 40 AUDIO
    TITLE "6:cjc128_0052"
    INDEX 01 01:11:13
  TRACK 41 AUDIO
    TITLE "0:"
    INDEX 01 01:12:42
  TRACK 42 AUDIO
    TITLE "4:cjc128_0053"
    INDEX 01 01:13:28
  TRACK 43 AUDIO
    TITLE "0:"
    INDEX 01 01:16:14
  TRACK 44 AUDIO
    TITLE "5:cjc128_0054"
    INDEX 01 01:18:51
  TRACK 45 AUDIO
    TITLE "0:"
    INDEX 01 01:20:55
  TRACK 46 AUDIO
    TITLE "6:cjc128_0055"
    INDEX 01 01:21:25
  TRACK 47 AUDIO
    TITLE "0:"
    INDEX 01 01:22:48
  TRACK 48 AUDIO
    TITLE "4:cjc128_0056"
    INDEX 01 01:23:22
  TRACK 49 AUDIO
    TITLE "0:"
    INDEX 01 01:25:70
  TRACK 50 AUDIO
    TITLE "5:cjc128_0057"
    INDEX 01 01:28:49
  TRACK 51 AUDIO
    TITLE "0:"
    INDEX 01 01:30:58
  TRACK 52 AUDIO
    TITLE "6:cjc128_0058"
    INDEX 01 01:31:45
  TRACK 53 AUDIO
    TITLE "0:"
    INDEX 01 01:33:01
  TRACK 54 AUDIO
    TITLE "4:cjc128_0059"
    INDEX 01 01:33:52
  TRACK 55 AUDIO
    TITLE "0:"
    INDEX 01 01:36:25
  TRACK 56 AUDIO
    TITLE "5:cjc128_0060"
    INDEX 01 01:39:19
  TRACK 57 AUDIO
    TITLE "0:"
    INDEX 01 01:41:40
  TRACK 58 AUDIO
    TITLE "6:cjc128_0061"
    INDEX 01 01:42:18
  TRACK 59 AUDIO
    TITLE "0:"
    INDEX 01 01:43:27
  TRACK 60 AUDIO
    TITLE "4:cjc128_0062"
    INDEX 01 01:44:09
  TRACK 61 AUDIO
    TITLE "0:"
    INDEX 01 01:47:40
  TRACK 62 AUDIO
    TITLE "5:cjc128_0063"
    INDEX 01 01:50:58
  TRACK 63 AUDIO
    TITLE "0:"
    INDEX 01 01:53:35
  TRACK 64 AUDIO
    TITLE "6:cjc128_0064"
    INDEX 01 01:54:13
  TRACK 65 AUDIO
    TITLE "0:"
    INDEX 01 01:55:34
  TRACK 66 AUDIO
    TITLE "4:cjc128_0065"
    INDEX 01 01:56:14
  TRACK 67 AUDIO
    TITLE "0:"
    INDEX 01 01:58:25
  TRACK 68 AUDIO
    TITLE "5:cjc128_0066"
    INDEX 01 02:00:53
  TRACK 69 AUDIO
    TITLE "0:"
    INDEX 01 02:02:34
  TRACK 70 AUDIO
    TITLE "6:cjc128_0067"
    INDEX 01 02:03:12
  TRACK 71 AUDIO
    TITLE "0:"
    INDEX 01 02:04:33
  TRACK 72 AUDIO
    TITLE "4:cjc128_0068"
    INDEX 01 02:05:21
  TRACK 73 AUDIO
    TITLE "0:"
    INDEX 01 02:07:43
  TRACK 74 AUDIO
    TITLE "5:cjc128_0069"
    INDEX 01 02:10:16
  TRACK 75 AUDIO
    TITLE "0:"
    INDEX 01 02:12:01
  TRACK 76 AUDIO
    TITLE "6:cjc128_0070"
    INDEX 01 02:12:68
  TRACK 77 AUDIO
    TITLE "0:"
    INDEX 01 02:14:18
  TRACK 78 AUDIO
    TITLE "4:cjc128_0071"
    INDEX 01 02:14:73
  TRACK 79 AUDIO
    TITLE "0:"
    INDEX 01 02:17:28
  TRACK 80 AUDIO
    TITLE "5:cjc128_0072"
    INDEX 01 02:19:74
  TRACK 81 AUDIO
    TITLE "0:"
    INDEX 01 02:21:67
  TRACK 82 AUDIO
    TITLE "6:cjc128_0073"
    INDEX 01 02:22:45
  TRACK 83 AUDIO
    TITLE "0:"
    INDEX 01 02:23:72
  TRACK 84 AUDIO
    TITLE "4:cjc128_0074"
    INDEX 01 02:24:57
  TRACK 85 AUDIO
    TITLE "0:"
    INDEX 01 02:27:52
  TRACK 86 AUDIO
    TITLE "5:cjc128_0075"
    INDEX 01 02:30:09
  TRACK 87 AUDIO
    TITLE "0:"
    INDEX 01 02:31:73
